Coordinates
version=1
nRows=5
nColumns=46
inDegrees=yes

Units are S.I. units (second, meters, Newtons, ...)
Angles are in degrees.

endheader
time	pelvis_tilt	pelvis_list	pelvis_rotation	pelvis_tx	pelvis_ty	pelvis_tz	bb_angle	bb_tx	bb_ty	bb_tz	hip_flexion_r	hip_adduction_r	hip_rotation_r	knee_angle_r	knee_angle_r_beta	ankle_angle_r	subtalar_angle_r	mtp_angle_r	crank_angle_r	hip_flexion_l	hip_adduction_l	hip_rotation_l	knee_angle_l	knee_angle_l_beta	ankle_angle_l	subtalar_angle_l	mtp_angle_l	crank_angle_l	lumbar_extension	lumbar_bending	lumbar_rotation	arm_flex_r	arm_add_r	arm_rot_r	elbow_flex_r	pro_sup_r	wrist_flex_r	wrist_dev_r	arm_flex_l	arm_add_l	arm_rot_l	elbow_flex_l	pro_sup_l	wrist_flex_l	wrist_dev_l
      5.00000000	    -23.31909878	     -4.66689377	     -7.25946436	      0.14655982	      1.07024949	     -0.23542041	      0.00000000	      0.50000000	      0.00000000	      0.25000000	     88.77486135	      4.30581127	      1.61171565	     89.46034507	      1.56137757	      7.16286384	     -8.82751957	      0.00000000	      0.00000000	     51.91306997	    -11.32654721	     -1.99055588	     55.45857393	      0.96793471	    -33.09355422	    -22.44473002	      0.00000000	      0.00000000	    -60.38584511	     -1.01465206	      5.83308762	     89.15717366	    -17.06479287	     26.82381537	     74.80751471	     43.18718241	      0.00000000	      0.00000000	     84.25040863	    -11.88645842	     11.24490518	     72.71160832	     46.06798423	      0.00000000	      0.00000000
      5.00500000	    -23.09857424	     -4.23754922	     -6.98231265	      0.14657215	      1.06942283	     -0.23594820	      0.00000000	      0.50000000	      0.00000000	      0.25000000	     87.25234662	      3.98455913	      1.87200384	     87.01770405	      1.51874544	      7.89066278	     -9.29329868	      0.00000000	      0.00000000	     52.68632822	    -10.72626013	     -1.60413389	     58.24421892	      1.01655339	    -32.24572654	    -22.83262826	      0.00000000	      0.00000000	    -60.53739298	     -1.10116875	      5.22801661	     89.11803154	    -16.93945327	     26.79170651	     74.81624288	     43.16778137	      0.00000000	      0.00000000	     84.47475440	    -12.23317721	     11.29857755	     72.85401676	     46.11166039	      0.00000000	      0.00000000
      5.01000000	    -22.92159123	     -3.94382303	     -6.66300331	      0.14642178	      1.06855902	     -0.23626145	      0.00000000	      0.50000000	      0.00000000	      0.25000000	     85.73594134	      3.57789057	      1.85904119	     84.43223277	      1.47362046	      8.05457191	     -9.62640448	      0.00000000	      0.00000000	     53.56717648	    -10.25358309	     -1.00046347	     61.02588071	      1.06510255	    -30.96018537	    -22.00764311	      0.00000000	      0.00000000	    -60.61233408	     -0.93427973	      3.90379662	     89.13839534	    -15.01734371	     26.40591004	     73.79002049	     42.75275112	      0.00000000	      0.00000000	     84.14557815	    -14.86818753	     12.56711743	     74.17626418	     46.65864886	      0.00000000	      0.00000000
      5.01500000	    -22.61240242	     -3.46057845	     -6.31191283	      0.14639091	      1.06757153	     -0.23650704	      0.00000000	      0.50000000	      0.00000000	      0.25000000	     84.11410148	      3.22749941	      2.18754035	     81.92471347	      1.42985599	      8.09282096	    -10.25540789	      0.00000000	      0.00000000	     54.32236994	     -9.65973457	     -0.71350526	     63.80016209	      1.11352289	    -29.84579397	    -21.56436053	      0.00000000	      0.00000000	    -60.75245353	     -1.03189294	      3.18970443	     89.08165584	    -14.79304717	     26.33381440	     73.69530790	     42.68223809	      0.00000000	      0.00000000	     84.20280592	    -15.35438675	     12.79612868	     74.21329463	     46.74669879	      0.00000000	      0.00000000
      5.02000000	    -22.34182841	     -2.95535349	     -5.99480114	      0.14649192	      1.06646849	     -0.23678155	      0.00000000	      0.50000000	      0.00000000	      0.25000000	     82.56707459	      2.77523161	      2.41637019	     79.43924750	      1.38647642	      7.83686017	    -10.74013915	      0.00000000	      0.00000000	     55.13184210	     -9.10158458	     -0.53050851	     66.55400355	      1.16158649	    -28.74646743	    -21.08114719	      0.00000000	      0.00000000	    -60.83741309	     -1.16928278	      2.39857729	     89.01088707	    -14.55386358	     26.34381629	     73.51755010	     42.61972256	      0.00000000	      0.00000000	     84.17026498	    -16.12669114	     13.30555313	     74.43842459	     46.90417315	      0.00000000	      0.00000000
